<?xml version="1.0" encoding="UTF-8"?> <svg xmlns="http://www.w3.org/2000/svg" width="150" height="56" viewBox="0 0 150 56" fill="none"><g clip-path="url(#clip0)"><path d="M37.4031 0.308594V8.39081H41.1601V11.0432H37.4031V22.9705C37.4031 23.888 37.5969 24.5386 37.9844 24.9139C38.3717 25.2892 38.8774 25.4727 39.5175 25.4727C39.8375 25.4727 40.1915 25.4477 40.5875 25.3893C40.9833 25.3309 41.3203 25.2809 41.5898 25.2142L42.087 27.6664C41.7415 27.8832 41.2446 28.0667 40.5791 28.2001C39.922 28.3419 39.2565 28.4086 38.5994 28.4086C37.1336 28.4086 35.9627 27.9666 35.0949 27.0908C34.2271 26.2151 33.7892 24.8388 33.7892 22.9622V11.0348H30.6553V8.38248H33.7892V0.308594H37.4031Z" fill="#01012B"></path><path d="M50.6458 26.1739L53.6364 25.6651V2.94483L50.6458 2.43603V0.133972H57.2503V11.4274C57.9328 10.4849 58.7751 9.75088 59.7607 9.23377C60.7548 8.71663 61.85 8.44974 63.063 8.44974C65.1944 8.44974 66.837 9.07528 68.0164 10.3347C69.1873 11.5942 69.7771 13.5293 69.7771 16.1483V25.6651L72.7675 26.1739V28.4592H63.1726V26.1739L66.163 25.6651V16.1066C66.163 14.4885 65.8093 13.2874 65.1102 12.5117C64.4107 11.736 63.3579 11.3523 61.9678 11.3523C60.9737 11.3523 60.0723 11.5859 59.2638 12.053C58.4466 12.52 57.7811 13.1539 57.2588 13.9463V25.6568L60.2494 26.1656V28.4511H50.6458V26.1739Z" fill="#01012B"></path><path d="M57.2252 31.2362V35.9737H60.9822V38.6263H57.2252V50.5534C57.2252 51.4711 57.4189 52.1217 57.8065 52.4968C58.1938 52.8722 58.6994 53.0557 59.3396 53.0557C59.6596 53.0557 60.0136 53.0306 60.4093 52.9724C60.8054 52.9138 61.1424 52.864 61.4119 52.7971L61.9091 55.2492C61.5636 55.4662 61.0664 55.6497 60.4011 55.7831C59.7438 55.9249 59.0785 55.9916 58.4212 55.9916C56.9557 55.9916 55.7845 55.5495 54.917 54.6738C54.0492 53.798 53.611 52.4219 53.611 50.5452V38.6178H50.4774V35.9655H53.611V31.2278H57.2252V31.2362Z" fill="#01012B"></path><path d="M70.4005 38.2843V35.9821H76.6175L76.9627 38.8347C77.5271 37.8338 78.218 37.0413 79.0435 36.4743C79.8692 35.907 80.8127 35.6236 81.874 35.6236C82.1519 35.6236 82.4469 35.6484 82.7418 35.6903C83.0449 35.7319 83.2726 35.782 83.4324 35.8237L82.9522 39.1432L80.8968 39.0348C79.9449 39.0348 79.1446 39.2518 78.496 39.6939C77.8474 40.136 77.3502 40.7531 76.9881 41.5537V52.8305L79.9785 53.3393V55.6246H70.4005V53.3393L73.3909 52.8305V38.7931L70.4005 38.2843Z" fill="#01012B"></path><path d="M90.3655 53.3309L93.3561 52.8221V38.7931L90.3655 38.2843V35.9821H96.97V52.8305L99.9607 53.3393V55.6246H90.3655V53.3309Z" fill="#01012B"></path><path d="M126.446 46.675C126.446 49.4691 125.764 51.7212 124.408 53.4394C123.051 55.1493 121.181 56.0084 118.805 56.0084C117.525 56.0084 116.422 55.7664 115.478 55.2827C114.535 54.7989 113.751 54.0816 113.128 53.1392L112.799 55.6246H109.724V31.3113L106.776 30.811V28.5338H113.288V38.5426C113.903 37.6838 114.669 37.0247 115.579 36.5742C116.489 36.1239 117.55 35.8904 118.772 35.8904C121.181 35.8904 123.068 36.8497 124.416 38.7596C125.764 40.6695 126.446 43.1802 126.446 46.2996V46.675ZM122.866 46.2996C122.866 44.0644 122.453 42.2544 121.636 40.8532C120.819 39.4518 119.564 38.7596 117.87 38.7596C116.775 38.7596 115.849 39.0263 115.09 39.5436C114.341 40.069 113.734 40.7697 113.288 41.6538V50.2114C113.734 51.104 114.341 51.8214 115.107 52.3467C115.874 52.8721 116.801 53.1307 117.904 53.1307C119.581 53.1307 120.827 52.5387 121.636 51.3542C122.453 50.1698 122.857 48.6099 122.857 46.6584V46.2996H122.866Z" fill="#01012B"></path><path d="M142.545 56C139.824 56 137.659 55.1077 136.058 53.3058C134.449 51.5127 133.649 49.1855 133.649 46.3247V45.5407C133.649 42.7883 134.474 40.4945 136.134 38.6679C137.785 36.8413 139.748 35.9239 142.014 35.9239C144.634 35.9239 146.63 36.7079 147.978 38.2843C149.334 39.8605 150.008 41.9542 150.008 44.5732V46.7752H137.33L137.28 46.867C137.313 48.7268 137.794 50.2531 138.703 51.4542C139.621 52.6555 140.902 53.2476 142.553 53.2476C143.758 53.2476 144.811 53.0807 145.721 52.7388C146.63 52.3969 147.414 51.9298 148.079 51.3374L149.469 53.623C148.77 54.2902 147.844 54.8573 146.698 55.3162C145.535 55.7749 144.154 56 142.545 56ZM142.005 38.7014C140.818 38.7014 139.798 39.2017 138.956 40.1942C138.114 41.1868 137.6 42.4379 137.406 43.9392L137.44 44.0309H146.445V43.5638C146.445 42.1793 146.074 41.0283 145.325 40.0941C144.575 39.1601 143.471 38.7014 142.005 38.7014Z" fill="#01012B"></path><path d="M93.3562 24.8472H96.9701V28.5003H93.3562V24.8472Z" fill="#01012B"></path><path d="M85.5554 24.0047C84.6373 22.8037 84.1655 21.2773 84.1232 19.4173L84.1737 19.3256H96.8604V17.1236C96.8604 14.4963 96.1867 12.3944 94.8302 10.8263C93.474 9.24991 91.4859 8.46588 88.8576 8.46588C86.5915 8.46588 84.6288 9.38335 82.9777 11.21C81.3181 13.045 80.4924 15.3387 80.4924 18.0911V18.8752C80.4924 21.736 81.2929 24.0715 82.9017 25.8647C84.5107 27.658 86.6757 28.5588 89.3969 28.5588C89.978 28.5588 90.5342 28.5254 91.0565 28.4671L91.0901 25.6729C90.5593 25.7563 90.0034 25.798 89.3969 25.798C87.7542 25.798 86.4737 25.1975 85.5554 24.0047ZM85.8082 12.728C86.6506 11.7355 87.6698 11.235 88.8661 11.235C90.3404 11.235 91.4438 11.7021 92.1935 12.6279C92.9435 13.5621 93.3141 14.7131 93.3141 16.0977V16.5648H84.2918L84.2582 16.473C84.4435 14.9717 84.9658 13.7206 85.8082 12.728Z" fill="#01012B"></path><path d="M11.3894 29.9184L18.0529 22.9205L24.0593 29.4096L26.4854 26.3902L17.9686 0L9.18228 27.2076L11.3894 29.9184Z" fill="#01012B"></path><path d="M17.9434 42.538L22.2229 55.633H35.9288L28.0271 31.161L24.2783 35.8237L18.0108 29.0426L11.1535 36.2407L7.6491 31.9535L0 55.633H13.706L17.9434 42.538Z" fill="#01012B"></path></g><defs><clipPath id="clip0"><rect width="150" height="56" fill="white"></rect></clipPath></defs></svg> 